<svg xmlns="http://www.w3.org/2000/svg" width="917" height="917" viewBox="0 0 917 917"><defs><style>.a,.b,.c,.d,.g,.i{fill:none;}.a,.b,.c,.d{stroke:#fff;}.a{opacity:0.7;}.b{opacity:0.5;}.c{opacity:0.3;}.d{opacity:0.1;}.e{opacity:0.6;}.f{fill:#fff;}.g{stroke:#2d62ed;stroke-linecap:round;stroke-linejoin:round;stroke-width:2px;}.h{opacity:0.85;}.j{opacity:0.75;}.k{opacity:0.8;}.l{stroke:none;}</style></defs><g transform="translate(-197 -83)"><g class="a" transform="translate(424.695 310.695)"><circle class="l" cx="230.772" cy="230.772" r="230.772"/><circle class="i" cx="230.772" cy="230.772" r="230.272"/></g><g class="b" transform="translate(346 232)"><circle class="l" cx="309.5" cy="309.5" r="309.5"/><circle class="i" cx="309.5" cy="309.5" r="309"/></g><g class="c" transform="translate(272.386 158.385)"><circle class="l" cx="383.081" cy="383.081" r="383.081"/><circle class="i" cx="383.081" cy="383.081" r="382.581"/></g><g class="d" transform="translate(197 83)"><circle class="l" cx="458.5" cy="458.5" r="458.5"/><circle class="i" cx="458.5" cy="458.5" r="458"/></g><g class="e" transform="translate(209.362 326.859)"><ellipse class="f" cx="28.5" cy="28" rx="28.5" ry="28" transform="translate(-0.361 0.141)"/><g transform="translate(16.515 17.219)"><path class="g" d="M5,5h9.346v9.346H5Z" transform="translate(-5 -5)"/><path class="g" d="M23.333,5H32.68v9.346H23.333Z" transform="translate(-9.654 -5)"/><path class="g" d="M23.333,23.333H32.68V32.68H23.333Z" transform="translate(-9.654 -9.654)"/><path class="g" d="M5,23.333h9.346V32.68H5Z" transform="translate(-5 -9.654)"/></g></g><g class="h" transform="translate(318.368 592.07)"><ellipse class="f" cx="53" cy="53.5" rx="53" ry="53.5" transform="translate(-0.368 -0.07)"/><g transform="translate(17.767 16.339)"><path class="i" d="M0,0H68.857V68.857H0Z"/><path class="g" d="M3,52.774v-37.3L28.821,4,54.643,15.476v37.3" transform="translate(5.607 7.476)"/><path class="g" d="M24.214,13H35.69V35.952H7V18.738H24.214" transform="translate(13.083 24.298)"/><path class="g" d="M20.476,39.69V13.869A2.869,2.869,0,0,0,17.607,11H11.869A2.869,2.869,0,0,0,9,13.869v8.607" transform="translate(16.821 20.559)"/></g></g><g transform="translate(774.62 614.545)"><ellipse class="f" cx="64" cy="63.5" rx="64" ry="63.5" transform="translate(0.38 0.455)"/><g transform="translate(27.912 24.972)"><path class="i" d="M0,0H75.355V75.355H0Z"/><circle class="g" cx="6.852" cy="6.852" r="6.852" transform="translate(52.856 34.245)"/><ellipse class="g" cx="6.852" cy="5.873" rx="6.852" ry="5.873" transform="translate(5.873 47.948)"/><circle class="g" cx="5.873" cy="5.873" r="5.873" transform="translate(35.238 47.948)"/><line class="g" x1="29.365" transform="translate(11.746 59.694)"/><line class="g" x2="29.365" transform="translate(11.746 47.948)"/><path class="g" d="M8,22.7V7h6.28A9.419,9.419,0,0,1,23.7,16.419v15.7" transform="translate(17.118 14.979)"/><path class="g" d="M5,21.419V15.14A3.14,3.14,0,0,1,8.14,12H30.118" transform="translate(10.699 25.678)"/><path class="g" d="M31.839,25.979V4L13,25.979" transform="translate(27.817 8.559)"/></g></g><g class="h" transform="translate(838.675 284.156)"><ellipse class="f" cx="48" cy="49" rx="48" ry="49" transform="translate(0.325 -0.156)"/><g transform="translate(20.136 19.987)"><path class="i" d="M0,0H57.655V57.655H0Z"/><path class="g" d="M12.368,19.309h6.941V12.368l-8.1-8.1A13.882,13.882,0,0,1,29.72,22.779L43.6,36.661A4.908,4.908,0,0,1,36.661,43.6L22.779,29.72A13.882,13.882,0,0,1,4.27,11.211l8.1,8.1" transform="translate(4.898 4.898)"/></g></g><g class="j" transform="translate(566.722 877.509)"><circle class="f" cx="44" cy="44" r="44" transform="translate(0.278 0.491)"/><g transform="translate(18.298 17.556)"><path class="i" d="M0,0H51.624V51.624H0Z"/><circle class="g" cx="4.5" cy="4.5" r="4.5" transform="translate(5.98 34.936)"/><ellipse class="g" cx="4.5" cy="4" rx="4.5" ry="4" transform="translate(35.98 8.936)"/><path class="g" d="M28.208,8V18.755A10.755,10.755,0,0,1,17.453,29.51H11l6.453-6.453m0,12.906L11,29.51" transform="translate(12.661 9.208)"/><path class="g" d="M5,30.963V20.208A10.755,10.755,0,0,1,15.755,9.453h6.453L15.755,3m0,12.906,6.453-6.453" transform="translate(5.755 3.453)"/></g></g><g class="j" transform="translate(475.696 143.684)"><circle class="f" cx="44" cy="44" r="44" transform="translate(0.304 0.316)"/><g transform="translate(19.778 17.296)"><path class="i" d="M0,0H48.4V48.4H0Z"/><path class="g" d="M12,9v4.033M12,21.1v.02" transform="translate(12.201 9.15)"/><path class="g" d="M7.041,35.3H35.275a4.033,4.033,0,0,0,3.711-5.546L24.667,5.049a4.033,4.033,0,0,0-7.059,0L3.289,29.754A4.033,4.033,0,0,0,6.819,35.3" transform="translate(3.043 3.018)"/></g></g><g class="k" transform="translate(1046.573 678.601)"><circle class="f" cx="33.5" cy="33.5" r="33.5" transform="translate(0.426 0.399)"/><g transform="translate(13.917 15.033)"><path class="i" d="M0,0H39.662V39.662H0Z"/><path class="g" d="M15.105,5.176a2.848,2.848,0,0,1,5.536,0,2.849,2.849,0,0,0,4.252,1.762,2.85,2.85,0,0,1,3.917,3.917,2.849,2.849,0,0,0,1.76,4.25,2.848,2.848,0,0,1,0,5.536,2.849,2.849,0,0,0-1.762,4.252,2.85,2.85,0,0,1-3.917,3.917,2.849,2.849,0,0,0-4.25,1.76,2.849,2.849,0,0,1-5.536,0,2.849,2.849,0,0,0-4.252-1.762,2.85,2.85,0,0,1-3.917-3.917,2.849,2.849,0,0,0-1.76-4.25,2.849,2.849,0,0,1,0-5.536,2.849,2.849,0,0,0,1.762-4.252,2.85,2.85,0,0,1,3.917-3.917,2.847,2.847,0,0,0,4.25-1.76Z" transform="translate(1.958 1.958)"/><circle class="g" cx="5.378" cy="5.378" r="5.378" transform="translate(14.453 14.453)"/></g></g></g></svg>